<svg width="500" height="103" viewBox="0 0 500 103" fill="none" xmlns="http://www.w3.org/2000/svg">
<path d="M495.646 24.5921C493.537 22.095 489.848 21.0962 485.104 21.0962H483.523C471.4 21.0962 451.371 27.0892 451.371 50.0621V101.002C451.371 102.001 452.425 103 453.479 103C457.696 103 461.386 102.001 463.494 100.503C466.129 99.0046 467.711 96.5075 467.711 93.0116V50.0621C467.711 39.0751 478.252 36.0786 483.523 36.0786H497.754C499.335 36.0786 500.39 35.0798 499.862 33.5815C499.335 29.0868 497.227 26.5897 495.646 24.5921Z" fill="#0B63F6"/>
<path d="M83.2037 21.0962H82.137C74.67 21.0962 65.0695 23.0636 58.1359 29.4576C51.2023 23.0636 41.0685 21.0962 34.1348 21.0962H32.5348C20.2676 21.0962 0 26.9983 0 49.6233V99.7915C0 100.775 1.06671 101.759 2.13343 101.759C6.40028 101.759 10.1338 100.775 12.2672 99.2997C14.934 97.8242 16.5341 95.3649 16.5341 91.922V49.6233C16.5341 38.8026 27.2012 35.8516 32.5348 35.8516H33.0681C38.9351 35.8516 49.0688 38.8026 49.0688 49.6233V99.7915C49.0688 100.775 50.1356 101.759 51.2023 101.759C55.4691 101.759 59.2026 100.775 61.336 99.2997C64.0028 97.8242 65.6029 95.3649 65.6029 91.922V49.6233C65.6029 38.8026 76.27 35.8516 81.6036 35.8516H82.137C88.0039 35.8516 98.1377 38.8026 98.1377 49.6233V99.7915C98.1377 100.775 99.2044 101.759 100.271 101.759C104.538 101.759 108.271 100.775 110.405 99.2997C113.072 97.8242 114.672 95.3649 114.672 91.922V49.6233C115.738 26.9983 96.0042 21.0962 83.2037 21.0962Z" fill="#0B63F6"/>
<path d="M272.964 35.0894C274.522 35.0894 275.561 34.0868 275.561 32.583C275.042 28.5728 274.003 26.0664 271.925 24.0613C269.846 21.5549 266.21 20.0511 261.014 20.0511H255.3V2.50638C255.3 1.00255 254.26 0 252.702 0C248.546 0.501276 245.428 1.00255 243.35 2.50638C240.753 4.01021 239.194 7.01787 239.194 10.5268V20.5523H222.049C220.491 20.5523 219.452 21.5549 219.452 23.0587C219.971 27.0689 221.01 29.074 222.569 31.5804C224.647 34.0868 227.764 35.5906 231.92 35.5906H239.194V77.6979C239.194 85.217 241.272 90.731 244.909 95.2425C248.546 99.2527 253.741 101.258 261.014 101.759C272.444 101.759 274.522 94.7413 275.042 90.2298C275.042 88.7259 274.003 87.7234 272.444 87.7234H264.132C261.014 87.7234 258.936 86.7208 257.378 85.217C255.819 83.7132 255.3 80.7055 255.3 76.6953V35.0894H272.964Z" fill="#0B63F6"/>
<path d="M341.484 35.0894C343.077 35.0894 344.139 34.0868 344.139 32.583C343.608 28.5728 342.546 26.0664 340.422 24.0613C338.297 21.5549 334.58 20.0511 329.269 20.0511H323.427V2.50638C323.427 1.00255 322.365 0 320.772 0C316.523 0.501276 313.337 1.00255 311.212 2.50638C308.557 4.01021 306.964 7.01787 306.964 10.5268V20.5523H289.438C287.845 20.5523 286.783 21.5549 286.783 23.0587C287.314 27.0689 288.376 29.074 289.969 31.5804C292.094 34.0868 295.28 35.5906 299.529 35.5906H306.964V77.6979C306.964 85.217 309.088 90.731 312.806 95.2425C316.523 99.2527 321.834 101.258 329.269 101.759C340.953 101.759 343.077 94.7413 343.608 90.2298C343.608 88.7259 342.546 87.7234 340.953 87.7234H332.456C329.269 87.7234 327.145 86.7208 325.552 85.217C323.958 83.7132 323.427 80.7055 323.427 76.6953V35.0894H341.484Z" fill="#0B63F6"/>
<path d="M172.07 21.0962C149.153 21.0962 130.923 39.2945 130.923 61.4276C130.923 83.5606 149.153 101.759 172.07 101.759C194.987 101.759 213.217 83.5606 213.217 61.4276C213.217 39.2945 194.987 21.0962 172.07 21.0962ZM172.07 87.4954C158.007 87.4954 146.548 75.6911 146.548 61.4276C146.548 47.164 158.007 35.3597 172.07 35.3597C186.133 35.3597 197.592 47.164 197.592 61.4276C197.592 75.6911 186.133 87.4954 172.07 87.4954Z" fill="#0B63F6"/>
<path d="M393.392 21.0962C369.433 21.0962 350.375 39.2945 350.375 61.4276C350.375 83.5606 369.433 101.759 393.392 101.759C417.351 101.759 436.409 83.5606 436.409 61.4276C436.409 39.2945 416.807 21.0962 393.392 21.0962ZM393.392 87.4954C378.69 87.4954 366.71 75.6911 366.71 61.4276C366.71 47.164 378.69 35.3597 393.392 35.3597C408.094 35.3597 420.074 47.164 420.074 61.4276C420.074 75.6911 408.094 87.4954 393.392 87.4954Z" fill="#0B63F6"/>
</svg>
